# xmcd
#
# Track frame offsets: 
#        150
#        15802
#        31495
#        49810
#        65375
#        80555
#        97880
#        111105
#        124995
#        138662
#
# Disc length: 2057 seconds
#
# Revision: 2
# Processed by: cddbd v1.5.1PL0 Copyright (c) Steve Scherf et al.
# Submitted via: ExactAudioCopy v0.95a3
#
DISCID=7e08070a
DTITLE=Doug Stone - I Thought It Was You
DYEAR=1991
DGENRE=Country
TTITLE0=I Thought It Was You
TTITLE1=A Jukebox With A Country Song
TTITLE2=The Feeling Never Goes Away
TTITLE3=(For Every Inch I've Laughed) I've Cried  A Mile
TTITLE4=Remember The Ride
TTITLE5=Come In Out Of The Pain
TTITLE6=Burning Down The Town
TTITLE7=If It Was Up To Me
TTITLE8=The Right to Remain Silent
TTITLE9=They Don't Make Years Like They Use To
EXTD=
EXTT0=
EXTT1=
EXTT2=
EXTT3=
EXTT4=
EXTT5=
EXTT6=
EXTT7=
EXTT8=
EXTT9=
PLAYORDER=
